# xmcd
#
# Track frame offsets:
#	150
#	4148
#	64343
#	116445
#	163710
#	187175
#	229048
#	269044
#	309487
#
# Disc length: 4477 seconds
#
# Revision: 1
# Processed by: cddbd v1.5.2PL0 Copyright (c) Steve Scherf et al.
# Submitted via: audiograbber 1.83.01
#
DISCID=7d117b09
DTITLE=Grateful Dead - 78-06-25 Autzen Stadium, Uni of Oregon, Eugene OR
DYEAR=1900
DGENRE=
TTITLE0=Stage Banter
TTITLE1=Estimated Prophet
TTITLE2=Eyes Of The World
TTITLE3=Drums
TTITLE4=Space
TTITLE5=Not Fade Away
TTITLE6=Going Down The Road Feeling Bad
TTITLE7=Around and Around
TTITLE8=US Blues
EXTD=
EXTT0=
EXTT1=
EXTT2=
EXTT3=
EXTT4=
EXTT5=
EXTT6=
EXTT7=
EXTT8=
PLAYORDER=
